<svg width="1000" height="1000" xmlns="http://www.w3.org/2000/svg"> 
    

       <ellipse cx="400" cy="455" rx="90" ry="25" fill="lightgray"></ellipse>
    <circle cx="400" cy="300" r="160" fill="orange" />
   
    <circle cx="380" cy="260" r="80" fill="white" />
    <circle cx="450" cy="260" r="80" fill="white" />

    <circle cx="405" cy="260" r="10" fill="black" />
    <circle cx="475" cy="260" r="10" fill="black" />

    <circle cx="425" cy="335" r="15" fill="black" />
    <ellipse cx="400" cy="400" rx="20" ry="9" fill="red"></ellipse>

    <polygon points="270 140, 270 210, 350 150" fill="orange" />
    <polygon points="280 150, 280 200, 340 160" fill="black" />


    <polygon points="470 110, 500 180, 410 150" fill="orange" />
    <polygon points="465 120, 490 170, 435 140" fill="black" />


<ellipse cx="270" cy="290" rx="120" ry="40" fill="orange" transform="rotate(15)"></ellipse>
<polygon points="75 320, 120 305, 110 360" fill="white" />


    <ellipse cx="800" cy="455" rx="90" ry="25" fill="lightgray"></ellipse>
    <circle cx="800" cy="300" r="160" fill="yellow" />

    <circle cx="750" cy="260" r="80" fill="white" />
    <circle cx="820" cy="260" r="80" fill="white" />

    <circle cx="720" cy="260" r="10" fill="black" />
    <circle cx="790" cy="260" r="10" fill="black" />
    <ellipse cx="780" cy="390" rx="9" ry="20" fill="red"></ellipse>



</svg>
